<svg width="337" height="55" viewBox="0 0 337 55" fill="none" xmlns="http://www.w3.org/2000/svg">
<rect width="337" height="55" fill="#F5F5F5"/>
<path d="M8.86842 28.2237C8.86842 19.031 16.2601 11.5789 25.3782 11.5789H47.0473C56.1654 11.5789 63.557 19.031 63.557 28.2237V44.8684H25.3782C16.2601 44.8684 8.86842 37.4164 8.86842 28.2237Z" fill="#4845D2"/>
<path d="M46.8296 15.9211H24.1178C18.1447 15.9211 13.3026 21.4291 13.3026 28.2237C13.3026 35.0182 18.1447 40.5263 24.1178 40.5263H46.8296C52.8026 40.5263 57.6447 35.0182 57.6447 28.2237C57.6447 21.4291 52.8026 15.9211 46.8296 15.9211Z" fill="#A5B4FC"/>
<path d="M25.6199 35.4605C29.9736 35.4605 33.5029 32.3825 33.5029 28.5855C33.5029 24.7886 29.9736 21.7105 25.6199 21.7105C21.2662 21.7105 17.7368 24.7886 17.7368 28.5855C17.7368 32.3825 21.2662 35.4605 25.6199 35.4605Z" fill="black"/>
<path d="M25.6199 30.9375C26.7083 30.9375 27.5906 30.168 27.5906 29.2188C27.5906 28.2695 26.7083 27.5 25.6199 27.5C24.5315 27.5 23.6491 28.2695 23.6491 29.2188C23.6491 30.168 24.5315 30.9375 25.6199 30.9375Z" fill="white"/>
<path d="M44.8348 35.4605C49.1885 35.4605 52.7178 32.3825 52.7178 28.5855C52.7178 24.7886 49.1885 21.7105 44.8348 21.7105C40.4811 21.7105 36.9518 24.7886 36.9518 28.5855C36.9518 32.3825 40.4811 35.4605 44.8348 35.4605Z" fill="black"/>
<path d="M44.8348 30.9375C45.9232 30.9375 46.8056 30.168 46.8056 29.2188C46.8056 28.2695 45.9232 27.5 44.8348 27.5C43.7464 27.5 42.864 28.2695 42.864 29.2188C42.864 30.168 43.7464 30.9375 44.8348 30.9375Z" fill="white"/>
<path d="M84.6591 38H79.5455L85.3068 20.5455H91.7841L97.5455 38H92.4318L88.6136 25.3523H88.4773L84.6591 38ZM83.7045 31.1136H93.3182V34.6591H83.7045V31.1136ZM99.2947 38V24.9091H103.999V38H99.2947ZM101.647 23.5455C101.011 23.5455 100.465 23.3352 100.011 22.9148C99.5561 22.4943 99.3288 21.9886 99.3288 21.3977C99.3288 20.8068 99.5561 20.3011 100.011 19.8807C100.465 19.4602 101.011 19.25 101.647 19.25C102.289 19.25 102.835 19.4602 103.283 19.8807C103.738 20.3011 103.965 20.8068 103.965 21.3977C103.965 21.9886 103.738 22.4943 103.283 22.9148C102.835 23.3352 102.289 23.5455 101.647 23.5455ZM115.848 20.5455V38H111.109V20.5455H115.848ZM122.866 30.6364V38H118.162V24.9091H122.628V27.3977H122.764C123.048 26.5682 123.548 25.9176 124.264 25.446C124.986 24.9744 125.827 24.7386 126.787 24.7386C127.713 24.7386 128.517 24.9517 129.199 25.3778C129.886 25.7983 130.418 26.3778 130.793 27.1165C131.173 27.8551 131.361 28.6989 131.355 29.6477V38H126.651V30.6364C126.656 29.9886 126.491 29.4801 126.156 29.1108C125.827 28.7415 125.366 28.5568 124.776 28.5568C124.389 28.5568 124.051 28.642 123.761 28.8125C123.477 28.9773 123.259 29.2159 123.105 29.5284C122.952 29.8352 122.872 30.2045 122.866 30.6364ZM141.484 24.9091V28.3182H132.859V24.9091H141.484ZM134.53 21.7727H139.234V33.7898C139.234 33.9716 139.266 34.125 139.328 34.25C139.391 34.3693 139.487 34.4602 139.618 34.5227C139.749 34.5795 139.916 34.608 140.121 34.608C140.263 34.608 140.428 34.5909 140.615 34.5568C140.808 34.5227 140.95 34.4943 141.041 34.4716L141.723 37.7784C141.513 37.8409 141.212 37.9176 140.82 38.0085C140.433 38.0994 139.973 38.1591 139.439 38.1875C138.359 38.2443 137.453 38.1335 136.72 37.8551C135.987 37.571 135.436 37.125 135.067 36.517C134.697 35.9091 134.518 35.1477 134.53 34.233V21.7727ZM149.536 38.2386C148.138 38.2386 146.934 37.9716 145.923 37.4375C144.917 36.8977 144.141 36.125 143.596 35.1193C143.056 34.108 142.786 32.8977 142.786 31.4886C142.786 30.1364 143.059 28.9545 143.604 27.9432C144.15 26.9318 144.92 26.1449 145.914 25.5824C146.908 25.0199 148.082 24.7386 149.434 24.7386C150.423 24.7386 151.317 24.892 152.119 25.1989C152.92 25.5057 153.604 25.9517 154.173 26.5369C154.741 27.1165 155.178 27.821 155.485 28.6506C155.792 29.4801 155.945 30.4148 155.945 31.4545V32.5455H144.252V29.9545H151.616C151.61 29.5795 151.513 29.25 151.326 28.9659C151.144 28.6761 150.897 28.4517 150.585 28.2926C150.278 28.1278 149.928 28.0455 149.536 28.0455C149.156 28.0455 148.806 28.1278 148.488 28.2926C148.17 28.4517 147.914 28.6733 147.721 28.9574C147.533 29.2415 147.434 29.5739 147.423 29.9545V32.75C147.423 33.1705 147.511 33.5455 147.687 33.875C147.863 34.2045 148.116 34.4631 148.445 34.6506C148.775 34.8381 149.173 34.9318 149.638 34.9318C149.962 34.9318 150.258 34.8864 150.525 34.7955C150.798 34.7045 151.031 34.5739 151.224 34.4034C151.417 34.2273 151.559 34.017 151.65 33.7727H155.945C155.798 34.6818 155.448 35.4716 154.897 36.142C154.346 36.8068 153.616 37.3239 152.707 37.6932C151.803 38.0568 150.746 38.2386 149.536 38.2386ZM157.865 38V24.9091H162.433V27.3977H162.57C162.808 26.4773 163.186 25.804 163.703 25.3778C164.226 24.9517 164.837 24.7386 165.536 24.7386C165.74 24.7386 165.942 24.7557 166.141 24.7898C166.345 24.8182 166.541 24.8608 166.729 24.9176V28.9318C166.496 28.8523 166.209 28.7926 165.868 28.7528C165.527 28.7131 165.234 28.6932 164.99 28.6932C164.53 28.6932 164.115 28.7983 163.746 29.0085C163.382 29.2131 163.095 29.5028 162.885 29.8778C162.675 30.2472 162.57 30.6818 162.57 31.1818V38H157.865ZM181.863 24.9091L177.465 38H172.011L167.613 24.9091H172.556L174.67 33.5682H174.806L176.92 24.9091H181.863ZM183.201 38V24.9091H187.906V38H183.201ZM185.553 23.5455C184.917 23.5455 184.371 23.3352 183.917 22.9148C183.462 22.4943 183.235 21.9886 183.235 21.3977C183.235 20.8068 183.462 20.3011 183.917 19.8807C184.371 19.4602 184.917 19.25 185.553 19.25C186.195 19.25 186.741 19.4602 187.19 19.8807C187.644 20.3011 187.871 20.8068 187.871 21.3977C187.871 21.9886 187.644 22.4943 187.19 22.9148C186.741 23.3352 186.195 23.5455 185.553 23.5455ZM196.575 38.2386C195.178 38.2386 193.973 37.9716 192.962 37.4375C191.956 36.8977 191.18 36.125 190.635 35.1193C190.095 34.108 189.825 32.8977 189.825 31.4886C189.825 30.1364 190.098 28.9545 190.643 27.9432C191.189 26.9318 191.959 26.1449 192.953 25.5824C193.947 25.0199 195.121 24.7386 196.473 24.7386C197.462 24.7386 198.357 24.892 199.158 25.1989C199.959 25.5057 200.643 25.9517 201.212 26.5369C201.78 27.1165 202.217 27.821 202.524 28.6506C202.831 29.4801 202.984 30.4148 202.984 31.4545V32.5455H191.291V29.9545H198.655C198.649 29.5795 198.553 29.25 198.365 28.9659C198.183 28.6761 197.936 28.4517 197.624 28.2926C197.317 28.1278 196.967 28.0455 196.575 28.0455C196.195 28.0455 195.845 28.1278 195.527 28.2926C195.209 28.4517 194.953 28.6733 194.76 28.9574C194.572 29.2415 194.473 29.5739 194.462 29.9545V32.75C194.462 33.1705 194.55 33.5455 194.726 33.875C194.902 34.2045 195.155 34.4631 195.484 34.6506C195.814 34.8381 196.212 34.9318 196.678 34.9318C197.001 34.9318 197.297 34.8864 197.564 34.7955C197.837 34.7045 198.07 34.5739 198.263 34.4034C198.456 34.2273 198.598 34.017 198.689 33.7727H202.984C202.837 34.6818 202.487 35.4716 201.936 36.142C201.385 36.8068 200.655 37.3239 199.746 37.6932C198.842 38.0568 197.786 38.2386 196.575 38.2386ZM207.058 38L203.786 24.9091H208.49L209.99 32.8864H210.092L211.763 24.9091H216.331L218.07 32.8182H218.172L219.604 24.9091H224.308L221.036 38H215.956L214.115 30.9773H213.979L212.138 38H207.058ZM230.453 20.5455H236.351L240.408 30.4318H240.612L244.669 20.5455H250.567V38H245.93V27.9091H245.794L241.908 37.8636H239.112L235.226 27.8409H235.089V38H230.453V20.5455ZM259.188 38.2386C257.767 38.2386 256.551 37.9574 255.54 37.3949C254.528 36.8267 253.753 36.0369 253.213 35.0256C252.673 34.0085 252.403 32.8295 252.403 31.4886C252.403 30.1477 252.673 28.9716 253.213 27.9602C253.753 26.9432 254.528 26.1534 255.54 25.5909C256.551 25.0227 257.767 24.7386 259.188 24.7386C260.608 24.7386 261.824 25.0227 262.835 25.5909C263.847 26.1534 264.622 26.9432 265.162 27.9602C265.702 28.9716 265.972 30.1477 265.972 31.4886C265.972 32.8295 265.702 34.0085 265.162 35.0256C264.622 36.0369 263.847 36.8267 262.835 37.3949C261.824 37.9574 260.608 38.2386 259.188 38.2386ZM259.222 34.7614C259.619 34.7614 259.963 34.6278 260.253 34.3608C260.543 34.0937 260.767 33.7131 260.926 33.2188C261.085 32.7244 261.165 32.1364 261.165 31.4545C261.165 30.767 261.085 30.179 260.926 29.6903C260.767 29.196 260.543 28.8153 260.253 28.5483C259.963 28.2812 259.619 28.1477 259.222 28.1477C258.801 28.1477 258.44 28.2812 258.139 28.5483C257.838 28.8153 257.608 29.196 257.449 29.6903C257.29 30.179 257.21 30.767 257.21 31.4545C257.21 32.1364 257.29 32.7244 257.449 33.2188C257.608 33.7131 257.838 34.0937 258.139 34.3608C258.44 34.6278 258.801 34.7614 259.222 34.7614ZM274.188 38.2386C272.767 38.2386 271.551 37.9574 270.54 37.3949C269.528 36.8267 268.753 36.0369 268.213 35.0256C267.673 34.0085 267.403 32.8295 267.403 31.4886C267.403 30.1477 267.673 28.9716 268.213 27.9602C268.753 26.9432 269.528 26.1534 270.54 25.5909C271.551 25.0227 272.767 24.7386 274.188 24.7386C275.472 24.7386 276.582 24.9716 277.52 25.4375C278.463 25.8977 279.193 26.5511 279.71 27.3977C280.227 28.2386 280.489 29.2273 280.494 30.3636H276.131C276.068 29.6761 275.869 29.1534 275.534 28.7955C275.205 28.4318 274.778 28.25 274.256 28.25C273.847 28.25 273.489 28.3693 273.182 28.608C272.875 28.8409 272.636 29.196 272.466 29.6733C272.295 30.1449 272.21 30.7386 272.21 31.4545C272.21 32.1705 272.295 32.767 272.466 33.2443C272.636 33.7159 272.875 34.071 273.182 34.3097C273.489 34.5426 273.847 34.6591 274.256 34.6591C274.602 34.6591 274.909 34.5795 275.176 34.4205C275.443 34.2557 275.659 34.017 275.824 33.7045C275.994 33.3864 276.097 33 276.131 32.5455H280.494C280.477 33.6989 280.213 34.7045 279.702 35.5625C279.19 36.4148 278.466 37.0739 277.528 37.5398C276.597 38.0057 275.483 38.2386 274.188 38.2386ZM286.663 34.8977L286.697 29.3068H287.31L290.481 24.9091H295.765L290.447 31.7614H289.117L286.663 34.8977ZM282.435 38V20.5455H287.14V38H282.435ZM290.515 38L287.515 32.8182L290.583 29.4773L295.901 38H290.515ZM302.724 38.2386C301.326 38.2386 300.121 37.9716 299.11 37.4375C298.104 36.8977 297.329 36.125 296.783 35.1193C296.244 34.108 295.974 32.8977 295.974 31.4886C295.974 30.1364 296.246 28.9545 296.792 27.9432C297.337 26.9318 298.107 26.1449 299.102 25.5824C300.096 25.0199 301.269 24.7386 302.621 24.7386C303.61 24.7386 304.505 24.892 305.306 25.1989C306.107 25.5057 306.792 25.9517 307.36 26.5369C307.928 27.1165 308.366 27.821 308.673 28.6506C308.979 29.4801 309.133 30.4148 309.133 31.4545V32.5455H297.44V29.9545H304.803C304.798 29.5795 304.701 29.25 304.513 28.9659C304.332 28.6761 304.085 28.4517 303.772 28.2926C303.465 28.1278 303.116 28.0455 302.724 28.0455C302.343 28.0455 301.994 28.1278 301.675 28.2926C301.357 28.4517 301.102 28.6733 300.908 28.9574C300.721 29.2415 300.621 29.5739 300.61 29.9545V32.75C300.61 33.1705 300.698 33.5455 300.874 33.875C301.05 34.2045 301.303 34.4631 301.633 34.6506C301.962 34.8381 302.36 34.9318 302.826 34.9318C303.15 34.9318 303.445 34.8864 303.712 34.7955C303.985 34.7045 304.218 34.5739 304.411 34.4034C304.604 34.2273 304.746 34.017 304.837 33.7727H309.133C308.985 34.6818 308.636 35.4716 308.085 36.142C307.533 36.8068 306.803 37.3239 305.894 37.6932C304.991 38.0568 303.934 38.2386 302.724 38.2386ZM311.053 38V24.9091H315.621V27.3977H315.757C315.996 26.4773 316.374 25.804 316.891 25.3778C317.413 24.9517 318.024 24.7386 318.723 24.7386C318.928 24.7386 319.129 24.7557 319.328 24.7898C319.533 24.8182 319.729 24.8608 319.916 24.9176V28.9318C319.683 28.8523 319.396 28.7926 319.055 28.7528C318.714 28.7131 318.422 28.6932 318.178 28.6932C317.717 28.6932 317.303 28.7983 316.933 29.0085C316.57 29.2131 316.283 29.5028 316.072 29.8778C315.862 30.2472 315.757 30.6818 315.757 31.1818V38H311.053Z" fill="#4845D2"/>
</svg>
